<?xml version="1.0" standalone="no"?>
<!DOCTYPE svg PUBLIC "-//W3C//DTD SVG 20010904//EN"
 "http://www.w3.org/TR/2001/REC-SVG-20010904/DTD/svg10.dtd">
<svg version="1.0" xmlns="http://www.w3.org/2000/svg"
 width="600.000000pt" height="600.000000pt" viewBox="0 0 600.000000 600.000000"
 preserveAspectRatio="xMidYMid meet">
<metadata>
Created by potrace 1.14, written by Peter Selinger 2001-2017
</metadata>
<g transform="translate(0.000000,600.000000) scale(0.100000,-0.100000)"
fill="#000000" stroke="none">
<path d="M1894 4985 c-60 -25 -69 -53 -70 -220 l-2 -150 -68 -6 c-192 -18
-352 -182 -356 -366 0 -23 -3 -43 -7 -44 -3 0 -69 -1 -146 -2 -116 -2 -146 -5
-168 -20 -57 -37 -76 -108 -43 -163 32 -54 48 -59 211 -64 l150 -5 1 -47 c1
-30 -3 -48 -10 -49 -6 -1 -65 -2 -131 -4 -66 -1 -130 -3 -142 -4 -12 0 -38
-17 -58 -36 -28 -29 -35 -43 -35 -76 0 -65 34 -114 90 -127 8 -1 76 -4 151 -4
l136 -1 2 -51 1 -51 -138 1 c-162 0 -200 -12 -230 -74 -25 -52 -18 -96 20
-139 28 -30 62 -36 213 -37 l130 -1 1 -51 2 -50 -142 -1 c-111 0 -149 -4 -174
-17 -60 -31 -84 -122 -45 -173 38 -52 65 -59 220 -58 l142 0 0 -52 0 -53 -145
0 c-173 0 -198 -9 -228 -81 -16 -37 -7 -91 21 -121 35 -39 63 -46 198 -46 72
0 135 0 141 -1 7 -1 11 -21 11 -50 l0 -50 -154 -3 -155 -3 -34 -37 c-32 -36
-39 -56 -34 -103 2 -29 41 -83 65 -91 11 -3 23 -7 28 -9 4 -1 70 -3 147 -4
l140 -1 -1 -50 -2 -50 -41 -1 c-22 0 -86 0 -140 0 -108 0 -140 -10 -175 -55
-15 -18 -21 -41 -21 -73 0 -39 5 -53 30 -78 37 -38 66 -44 223 -44 l124 -1 1
-33 c2 -61 12 -100 42 -160 66 -133 185 -212 330 -218 36 -1 50 -6 51 -17 0
-8 1 -71 1 -140 0 -143 11 -180 60 -210 39 -24 78 -25 122 -5 56 27 64 53 66
215 0 79 3 146 5 149 8 7 95 9 96 2 1 -3 2 -71 3 -151 2 -153 9 -178 51 -206
61 -40 140 -25 176 33 20 32 22 49 22 179 0 96 3 144 11 147 10 3 70 2 87 -2
3 0 6 -56 6 -123 1 -185 1 -182 31 -216 56 -62 161 -51 198 21 14 25 18 62 18
177 l1 145 50 0 50 0 1 -147 c2 -162 10 -190 66 -223 52 -30 140 -6 170 47 8
15 13 75 14 168 1 80 3 147 3 150 1 3 24 6 51 6 l50 0 0 -144 c0 -167 10 -200
67 -227 43 -21 105 -15 135 12 39 35 45 63 45 205 1 75 4 141 7 146 3 6 27 9
52 8 l46 -2 0 -144 c0 -150 6 -177 46 -213 29 -26 106 -33 138 -13 55 37 64
68 64 226 l0 145 50 1 c39 0 50 -3 51 -15 0 -9 2 -74 3 -146 3 -161 1 -146 34
-184 52 -60 155 -49 195 19 15 24 18 54 18 177 l-1 148 39 1 c189 8 353 169
365 361 l4 48 63 2 c35 1 102 3 148 3 73 2 89 5 117 27 53 40 65 111 29 167
-29 44 -71 55 -208 55 -67 0 -129 0 -137 0 -11 1 -15 13 -14 49 l1 47 150 5
c121 4 154 8 176 23 47 31 66 101 41 153 -29 61 -50 68 -218 74 l-150 5 0 48
c-1 35 3 47 14 48 8 0 76 1 150 3 91 1 142 6 155 15 79 52 80 164 2 211 -28
17 -51 20 -174 20 -88 0 -143 4 -144 10 -1 6 -1 19 -1 30 0 72 -13 66 140 65
153 -2 187 8 216 56 28 47 29 92 3 130 -37 56 -68 64 -221 62 -112 -1 -136 1
-137 13 -1 18 -1 72 0 82 1 4 66 8 145 8 119 0 148 3 170 17 80 53 81 166 2
213 -26 15 -53 18 -173 18 -90 0 -143 4 -144 11 -2 12 -2 66 0 81 1 7 48 11
140 11 149 1 180 8 213 53 23 32 30 84 15 118 -30 67 -64 79 -225 78 -143 -1
-156 3 -147 50 2 10 4 27 4 37 1 15 15 17 144 17 125 0 146 3 175 20 77 47 75
160 -3 211 -13 9 -64 14 -155 15 -74 2 -142 3 -151 3 -11 1 -15 10 -13 32 4
51 -31 157 -70 212 -69 101 -183 164 -298 166 l-38 1 0 148 c0 158 -6 181 -51
215 -55 40 -132 26 -174 -31 -17 -23 -20 -44 -22 -157 -1 -71 -2 -140 -2 -152
-1 -21 -6 -23 -51 -23 l-50 0 0 140 c0 154 -10 197 -53 225 -41 26 -95 28
-133 4 -53 -33 -64 -63 -63 -181 0 -57 0 -122 0 -145 l-1 -43 -50 0 c-33 0
-50 4 -51 13 0 6 -1 71 -1 142 -1 145 -10 181 -54 210 -59 39 -138 22 -174
-38 -17 -28 -20 -51 -20 -179 l0 -148 -50 0 c-27 0 -50 3 -51 8 -1 4 -2 70 -3
147 -2 178 -15 205 -104 230 -30 9 -92 -13 -114 -39 -26 -32 -31 -68 -31 -214
l0 -133 -50 3 -51 3 -2 153 -1 154 -36 36 c-31 31 -42 35 -86 36 -44 0 -55 -4
-82 -30 -39 -39 -45 -70 -44 -227 l1 -128 -51 3 -50 3 -1 148 c-2 163 -8 181
-67 217 -37 23 -91 21 -131 -5 -42 -27 -53 -76 -52 -227 l1 -138 -52 0 -53 0
0 148 c0 128 -3 151 -20 179 -32 54 -96 73 -156 48z"/>
</g>
</svg>
