<?xml version="1.0" encoding="UTF-8" standalone="no"?>
<svg
   xmlns:dc="http://purl.org/dc/elements/1.1/"
   xmlns:cc="http://creativecommons.org/ns#"
   xmlns:rdf="http://www.w3.org/1999/02/22-rdf-syntax-ns#"
   xmlns:svg="http://www.w3.org/2000/svg"
   xmlns="http://www.w3.org/2000/svg"
   xmlns:sodipodi="http://sodipodi.sourceforge.net/DTD/sodipodi-0.dtd"
   xmlns:inkscape="http://www.inkscape.org/namespaces/inkscape"
   version="1.1"
   width="256"
   height="256"
   viewBox="0 0 256 256"
   xml:space="preserve"
   id="svg130"
   sodipodi:docname="rocket-1206.svg"
   inkscape:version="0.92.5 (2060ec1f9f, 2020-04-08)"><metadata
   id="metadata134"><rdf:RDF><cc:Work
       rdf:about=""><dc:format>image/svg+xml</dc:format><dc:type
         rdf:resource="http://purl.org/dc/dcmitype/StillImage" /><dc:title></dc:title></cc:Work></rdf:RDF></metadata><sodipodi:namedview
   pagecolor="#ffffff"
   bordercolor="#666666"
   borderopacity="1"
   objecttolerance="10"
   gridtolerance="10"
   guidetolerance="10"
   inkscape:pageopacity="0"
   inkscape:pageshadow="2"
   inkscape:window-width="1920"
   inkscape:window-height="1056"
   id="namedview132"
   showgrid="false"
   showguides="true"
   inkscape:guide-bbox="true"
   inkscape:zoom="0.5"
   inkscape:cx="-128.96977"
   inkscape:cy="161.13467"
   inkscape:window-x="0"
   inkscape:window-y="0"
   inkscape:window-maximized="1"
   inkscape:current-layer="svg130"><sodipodi:guide
     position="256,256.05859"
     orientation="1,0"
     id="guide189"
     inkscape:locked="false" /></sodipodi:namedview>
<desc
   id="desc92">Created with Fabric.js 1.7.22</desc>
<defs
   id="defs94">

	

	
	
	
	
	
	
	
	
	
	
	
	
	
	
	
</defs>

<g
   id="g1075"
   transform="translate(-287.5,191.5)"><path
     inkscape:connector-curvature="0"
     id="path96"
     style="opacity:1;fill:#000000;fill-rule:nonzero;stroke:none;stroke-width:2.80080009;stroke-linecap:butt;stroke-linejoin:miter;stroke-miterlimit:10;stroke-dasharray:none"
     d="m 9.3945224,251.72254 c -0.7170048,0 -1.4340096,-0.27448 -1.9801656,-0.82064 -1.0951128,-1.09511 -1.0951128,-2.86521 0,-3.96033 L 120.12695,134.22898 c 1.09511,-1.09511 2.86522,-1.09511 3.96033,0 1.09512,1.09511 1.09512,2.86522 0,3.96033 L 11.374688,250.9019 c -0.548957,0.54616 -1.265962,0.82064 -1.9801656,0.82064 z" /><rect
     style="fill:none;stroke:#000000;stroke-width:1;stroke-miterlimit:4;stroke-dasharray:none;stroke-opacity:1"
     y="0.04033171"
     x="0"
     height="256"
     width="256"
     id="rect187" /></g><g
   id="g1040"
   transform="translate(-205,-317.5)"><g
     id="g179"><path
       d="m 72.070825,221.43469 c -0.717005,0 -1.43401,-0.27448 -1.980166,-0.82064 -1.095113,-1.09511 -1.095113,-2.86521 0,-3.96033 l 45.781881,-45.78468 c 1.09511,-1.09511 2.86521,-1.09511 3.96033,0 1.09511,1.09512 1.09511,2.86522 0,3.96034 l -45.78188,45.78467 c -0.548956,0.54616 -1.265961,0.82064 -1.980165,0.82064 z"
       style="opacity:1;fill:#f8cc1d;fill-rule:nonzero;stroke:none;stroke-width:2.80080009;stroke-linecap:butt;stroke-linejoin:miter;stroke-miterlimit:10;stroke-dasharray:none"
       id="path106"
       inkscape:connector-curvature="0" /><path
       d="m 57.501063,241.96175 c -1.546041,0 -2.8008,-1.25196 -2.8008,-2.8008 v -11.9202 c 0,-1.54885 1.254759,-2.8008 2.8008,-2.8008 1.546042,0 2.8008,1.25195 2.8008,2.8008 v 11.9202 c 0,1.54884 -1.251957,2.8008 -2.8008,2.8008 z"
       style="opacity:1;fill:#f8cc1d;fill-rule:nonzero;stroke:none;stroke-width:2.80080009;stroke-linecap:butt;stroke-linejoin:miter;stroke-miterlimit:10;stroke-dasharray:none"
       id="path114"
       inkscape:connector-curvature="0" /><path
       d="M 63.461166,236.00165 H 51.543762 c -1.546042,0 -2.8008,-1.25196 -2.8008,-2.8008 0,-1.54884 1.254758,-2.8008 2.8008,-2.8008 h 11.917404 c 1.546041,0 2.8008,1.25196 2.8008,2.8008 0,1.54884 -1.254759,2.8008 -2.8008,2.8008 z"
       style="opacity:1;fill:#f8cc1d;fill-rule:nonzero;stroke:none;stroke-width:2.80080009;stroke-linecap:butt;stroke-linejoin:miter;stroke-miterlimit:10;stroke-dasharray:none"
       id="path116"
       inkscape:connector-curvature="0" /></g><rect
     id="rect996"
     width="256"
     height="256"
     x="0"
     y="0.04033171"
     style="fill:none;stroke:#000000;stroke-width:1;stroke-miterlimit:4;stroke-dasharray:none;stroke-opacity:1" /></g><g
   id="g1033"
   transform="translate(-990.99999,553.5)"><g
     id="g183"><path
       d="m 102.42309,225.56587 c -0.717,0 -1.43401,-0.27448 -1.98016,-0.82064 -1.095114,-1.09511 -1.095114,-2.86521 0,-3.96033 l 24.74227,-24.74507 c 1.09511,-1.09511 2.86521,-1.09511 3.96033,0 1.09511,1.09512 1.09511,2.86522 0,3.96034 l -24.74227,24.74506 c -0.54616,0.54616 -1.26316,0.82064 -1.98017,0.82064 z"
       style="opacity:1;fill:#f8cc1d;fill-rule:nonzero;stroke:none;stroke-width:2.80080009;stroke-linecap:butt;stroke-linejoin:miter;stroke-miterlimit:10;stroke-dasharray:none"
       id="path110"
       inkscape:connector-curvature="0" /><path
       d="m 87.830926,246.29459 c -2.291054,0 -4.582108,-0.87385 -6.324206,-2.61595 -1.691683,-1.68888 -2.621549,-3.93512 -2.621549,-6.32701 0,-2.38908 0.929866,-4.63532 2.621549,-6.3242 3.486996,-3.4842 9.161417,-3.4842 12.651214,0 1.691683,1.68888 2.621548,3.93512 2.621548,6.3242 0,2.39189 -0.929865,4.63813 -2.621548,6.32701 -1.744899,1.7449 -4.035953,2.61595 -6.327008,2.61595 z m 0,-12.28151 c -0.857044,0 -1.711288,0.32489 -2.363875,0.97748 -0.632981,0.63298 -0.98028,1.47042 -0.98028,2.36388 0,0.89345 0.347299,1.73369 0.98028,2.36667 1.305173,1.30237 3.425379,1.30237 4.727751,0 0.63298,-0.63298 0.98028,-1.47042 0.98028,-2.36667 0,-0.89066 -0.3473,-1.7309 -0.98028,-2.36388 -0.649786,-0.64979 -1.506831,-0.97748 -2.363876,-0.97748 z"
       style="opacity:1;fill:#f8cc1d;fill-rule:nonzero;stroke:none;stroke-width:2.80080009;stroke-linecap:butt;stroke-linejoin:miter;stroke-miterlimit:10;stroke-dasharray:none"
       id="path124"
       inkscape:connector-curvature="0" /></g><rect
     style="fill:none;stroke:#000000;stroke-width:1;stroke-miterlimit:4;stroke-dasharray:none;stroke-opacity:1"
     y="0.04033171"
     x="0"
     height="256"
     width="256"
     id="rect998" /></g><g
   id="g1027"
   transform="translate(-780.5,130)"><g
     id="g174"><path
       d="m 26.947136,199.01708 c -0.717005,0 -1.43401,-0.27447 -1.980166,-0.82063 -1.095112,-1.09511 -1.095112,-2.86522 0,-3.96033 l 55.486649,-55.48665 c 1.095113,-1.09511 2.865219,-1.09511 3.960331,0 1.095113,1.09511 1.095113,2.86522 0,3.96033 l -55.486648,55.48665 c -0.548957,0.54896 -1.263161,0.82063 -1.980166,0.82063 z"
       style="opacity:1;fill:#f8cc1d;fill-rule:nonzero;stroke:none;stroke-width:2.80080009;stroke-linecap:butt;stroke-linejoin:miter;stroke-miterlimit:10;stroke-dasharray:none"
       id="path108"
       inkscape:connector-curvature="0" /><path
       d="m 10.909755,221.20222 c -2.3890822,0 -4.6353238,-0.93266 -6.327007,-2.62435 C 2.8938656,216.89179 1.964,214.64275 1.964,212.25647 c 0,-2.38629 0.9298656,-4.63533 2.618748,-6.32701 3.4897968,-3.4842 9.164218,-3.4842 12.651214,0 1.691683,1.69168 2.621548,3.93792 2.621548,6.32701 0,2.38908 -0.929865,4.63252 -2.618748,6.3242 v 0 c -1.691683,1.68889 -3.937924,2.62155 -6.327007,2.62155 z m 0,-12.28991 c -0.857045,0 -1.7112886,0.32489 -2.363875,0.97748 -0.6329808,0.63298 -0.98028,1.47042 -0.98028,2.36668 0,0.89065 0.3472992,1.73089 0.98028,2.36387 1.2631608,1.26316 3.46739,1.26316 4.72775,0 v 0 c 0.632981,-0.63298 0.98028,-1.47042 0.98028,-2.36387 0,-0.89346 -0.347299,-1.7337 -0.98028,-2.36668 -0.652586,-0.64979 -1.509631,-0.97748 -2.363875,-0.97748 z"
       style="opacity:1;fill:#f8cc1d;fill-rule:nonzero;stroke:none;stroke-width:2.80080009;stroke-linecap:butt;stroke-linejoin:miter;stroke-miterlimit:10;stroke-dasharray:none"
       id="path122"
       inkscape:connector-curvature="0" /></g><rect
     id="rect1000"
     width="256"
     height="256"
     x="0"
     y="0.04033171"
     style="fill:none;stroke:#000000;stroke-width:1;stroke-miterlimit:4;stroke-dasharray:none;stroke-opacity:1" /></g><g
   id="g1021"
   transform="translate(-844,-172.5)"><g
     id="g170"><path
       d="m 39.343477,152.13729 c -0.717005,0 -1.43401,-0.27447 -1.980166,-0.82063 -1.095113,-1.09511 -1.095113,-2.86522 0,-3.96033 L 57.59629,127.12615 c 1.095113,-1.09511 2.865219,-1.09511 3.960332,0 1.095112,1.09511 1.095112,2.86522 0,3.96313 l -20.23298,20.23018 c -0.546156,0.54336 -1.26316,0.81783 -1.980165,0.81783 z"
       style="opacity:1;fill:#f8cc1d;fill-rule:nonzero;stroke:none;stroke-width:2.80080009;stroke-linecap:butt;stroke-linejoin:miter;stroke-miterlimit:10;stroke-dasharray:none"
       id="path112"
       inkscape:connector-curvature="0" /><path
       d="m 24.75411,172.68676 c -1.546042,0 -2.8008,-1.25195 -2.8008,-2.8008 v -11.9202 c 0,-1.54884 1.254758,-2.8008 2.8008,-2.8008 1.546041,0 2.8008,1.25196 2.8008,2.8008 v 11.9202 c 0,1.54885 -1.251958,2.8008 -2.8008,2.8008 z"
       style="opacity:1;fill:#f8cc1d;fill-rule:nonzero;stroke:none;stroke-width:2.80080009;stroke-linecap:butt;stroke-linejoin:miter;stroke-miterlimit:10;stroke-dasharray:none"
       id="path118"
       inkscape:connector-curvature="0" /><path
       d="M 30.714212,166.72666 H 18.796808 c -1.546042,0 -2.8008,-1.25196 -2.8008,-2.8008 0,-1.54884 1.254758,-2.8008 2.8008,-2.8008 h 11.917404 c 1.546042,0 2.8008,1.25196 2.8008,2.8008 0,1.54884 -1.254758,2.8008 -2.8008,2.8008 z"
       style="opacity:1;fill:#f8cc1d;fill-rule:nonzero;stroke:none;stroke-width:2.80080009;stroke-linecap:butt;stroke-linejoin:miter;stroke-miterlimit:10;stroke-dasharray:none"
       id="path120"
       inkscape:connector-curvature="0" /></g><rect
     style="fill:none;stroke:#000000;stroke-width:1;stroke-miterlimit:4;stroke-dasharray:none;stroke-opacity:1"
     y="0.04033171"
     x="0"
     height="256"
     width="256"
     id="rect1002" /></g><g
   id="g1014"
   transform="translate(-139.5,523)"><path
     inkscape:connector-curvature="0"
     id="path98"
     style="opacity:1;fill:#f8cc1d;fill-rule:nonzero;stroke:none;stroke-width:2.80080009;stroke-linecap:butt;stroke-linejoin:miter;stroke-miterlimit:10;stroke-dasharray:none"
     d="m 224.40634,122.07911 c -1.17634,0 -2.32467,0.11203 -3.45619,0.27448 -1.31918,-7.03841 -5.68002,-12.99852 -11.66533,-16.46871 -5.82006,7.78063 -12.21149,15.7517 -19.19669,23.91603 l 0.689,27.19297 h 29.7473 25.54329 c 1.60486,-3.23492 2.52913,-6.86756 2.52913,-10.72146 0,-13.36262 -10.8307,-24.19331 -24.19051,-24.19331 z" /><rect
     id="rect1004"
     width="256"
     height="256"
     x="0"
     y="0.04033171"
     style="fill:none;stroke:#000000;stroke-width:1;stroke-miterlimit:4;stroke-dasharray:none;stroke-opacity:1" /></g><g
   id="g1010"
   transform="translate(-472,-172.5)"><path
     inkscape:connector-curvature="0"
     id="path100"
     style="opacity:1;fill:#f8cc1d;fill-rule:nonzero;stroke:none;stroke-width:2.80080009;stroke-linecap:butt;stroke-linejoin:miter;stroke-miterlimit:10;stroke-dasharray:none"
     d="m 68.625841,74.445903 c 4.834181,-4.834181 11.544897,-7.531351 18.364845,-7.335295 l 44.154614,1.12032 c 7.76662,-6.646298 15.35118,-12.732437 22.7733,-18.325634 -5.83406,-8.53964 -15.64246,-14.149642 -26.76724,-14.149642 -1.57685,0 -3.11169,0.151243 -4.62972,0.369706 C 119.71243,21.093464 106.54587,9.7138136 90.701746,9.7138136 c -15.844125,0 -29.010686,11.3796504 -31.822689,26.4059424 -1.515233,-0.218462 -3.052872,-0.369706 -4.629723,-0.369706 -17.894311,0 -32.399654,14.505344 -32.399654,32.399655 0,5.164675 1.240754,10.029665 3.388968,14.362502 h 35.320889 z" /><rect
     style="fill:none;stroke:#000000;stroke-width:1;stroke-miterlimit:4;stroke-dasharray:none;stroke-opacity:1"
     y="0.04033171"
     x="0"
     height="256"
     width="256"
     id="rect1006" /></g><g
   id="g1071"
   transform="translate(-563.5,536)"><g
     id="g1063"><path
       d="m 188.22,87.382798 c -4.94061,0 -9.58714,-1.924149 -13.07974,-5.419548 -3.49539,-3.495398 -5.42234,-8.139124 -5.42234,-13.079736 0,-4.943412 1.92695,-9.587138 5.42234,-13.082536 3.4926,-3.495399 8.13913,-5.419548 13.07974,-5.419548 4.94341,0 9.58994,1.924149 13.08254,5.419548 3.4954,3.495398 5.41955,8.139124 5.41955,13.082536 0,4.940612 -1.92415,9.587139 -5.41955,13.079736 v 0 c -3.4926,3.495399 -8.14193,5.419548 -13.08254,5.419548 z m 0,-31.399768 c -3.44218,0 -6.68271,1.341583 -9.1194,3.778279 -2.4367,2.436696 -3.78108,5.674421 -3.78108,9.122205 0,3.444984 1.34158,6.682709 3.78108,9.119405 2.43669,2.436696 5.67442,3.778279 9.1194,3.778279 3.44498,0 6.68551,-1.341583 9.12221,-3.778279 v 0 c 2.43669,-2.436696 3.77828,-5.674421 3.77828,-9.119405 0,-3.444984 -1.34159,-6.685509 -3.77828,-9.122205 -2.4395,-2.436696 -5.67723,-3.778279 -9.12221,-3.778279 z"
       style="opacity:1;fill:#000000;fill-rule:nonzero;stroke:none;stroke-width:2.80080009;stroke-linecap:butt;stroke-linejoin:miter;stroke-miterlimit:10;stroke-dasharray:none"
       id="path102"
       inkscape:connector-curvature="0" /><path
       d="M 253.99959,13.578918 C 254.23486,11.049795 253.3414,8.5682864 251.54329,6.7701728 249.74517,4.9720592 247.24686,4.078604 244.73454,4.3138712 212.16404,7.3639424 173.29174,28.18509 128.75902,66.343189 L 84.335528,65.217267 C 77.678026,65.01841 71.205378,67.645561 66.516838,72.3341 L 46.222242,92.628697 c -2.251844,2.251843 -3.108888,5.436353 -2.288254,8.514433 0.820634,3.07808 3.145298,5.41395 6.220577,6.24858 l 31.565016,8.55925 19.762449,19.75964 c 1.09511,1.09512 2.86521,1.09512 3.96033,0 1.09511,-1.09511 1.09511,-2.86522 0,-3.96033 L 87.105519,113.41343 C 150.15433,48.639332 203.35272,13.816986 245.25829,9.8930648 c 0.86545,-0.067219 1.71129,0.2268652 2.32467,0.8402402 0.61337,0.613375 0.91866,1.462017 0.83744,2.324664 -3.92112,41.902769 -38.74907,95.103961 -103.52037,158.152771 L 126.56039,152.8711 c -1.09511,-1.09511 -2.86522,-1.09511 -3.96033,0 -1.09512,1.09512 -1.09512,2.86522 0,3.96034 l 19.76524,19.76244 8.55925,31.56222 c 0.83184,3.07807 3.1705,5.40274 6.24858,6.22337 0.76742,0.20446 1.54324,0.30529 2.31066,0.30529 2.29666,-0.003 4.51209,-0.90466 6.20097,-2.59634 l 20.2918,-20.2918 c 4.69414,-4.69414 7.29048,-11.18639 7.11963,-17.81869 l -1.12592,-44.42349 C 230.12557,85.021724 250.94672,46.149421 253.99959,13.578918 Z M 82.318952,110.31015 51.622184,101.98617 c -1.621663,-0.43973 -2.128608,-1.7449 -2.27425,-2.282652 -0.14284,-0.540555 -0.3501,-1.926951 0.83744,-3.111689 L 70.47997,76.297232 c 3.613032,-3.610231 8.626464,-5.6016 13.715518,-5.478365 l 38.298142,0.969077 c -12.9313,11.41326 -26.330324,24.26333 -40.174678,38.522206 z m 105.175638,63.81062 c 0.13164,5.10306 -1.86533,10.10249 -5.47836,13.71552 l -20.2918,20.2918 c -1.18754,1.18754 -2.56833,0.98028 -3.10889,0.83744 -0.54055,-0.14565 -1.84572,-0.65259 -2.28545,-2.27705 l -8.32398,-30.69397 c 14.25608,-13.84436 27.10895,-27.24058 38.52221,-40.17188 z"
       style="opacity:1;fill:#000000;fill-rule:nonzero;stroke:none;stroke-width:2.80080009;stroke-linecap:butt;stroke-linejoin:miter;stroke-miterlimit:10;stroke-dasharray:none"
       id="path104"
       inkscape:connector-curvature="0" /></g><rect
     id="rect1065"
     width="256"
     height="256"
     x="0"
     y="0.04033171"
     style="fill:none;stroke:#000000;stroke-width:1;stroke-miterlimit:4;stroke-dasharray:none;stroke-opacity:1" /></g></svg>