<?xml version="1.0" encoding="UTF-8" standalone="no"?>
<svg
   xmlns:dc="http://purl.org/dc/elements/1.1/"
   xmlns:cc="http://creativecommons.org/ns#"
   xmlns:rdf="http://www.w3.org/1999/02/22-rdf-syntax-ns#"
   xmlns:svg="http://www.w3.org/2000/svg"
   xmlns="http://www.w3.org/2000/svg"
   xmlns:sodipodi="http://sodipodi.sourceforge.net/DTD/sodipodi-0.dtd"
   xmlns:inkscape="http://www.inkscape.org/namespaces/inkscape"
   version="1.1"
   width="256"
   height="256"
   viewBox="0 0 256 256"
   xml:space="preserve"
   id="svg130"
   sodipodi:docname="rocket-rocket.svg"
   inkscape:version="0.92.5 (2060ec1f9f, 2020-04-08)"><metadata
   id="metadata134"><rdf:RDF><cc:Work
       rdf:about=""><dc:format>image/svg+xml</dc:format><dc:type
         rdf:resource="http://purl.org/dc/dcmitype/StillImage" /><dc:title /></cc:Work></rdf:RDF></metadata><sodipodi:namedview
   pagecolor="#ffffff"
   bordercolor="#666666"
   borderopacity="1"
   objecttolerance="10"
   gridtolerance="10"
   guidetolerance="10"
   inkscape:pageopacity="0"
   inkscape:pageshadow="2"
   inkscape:window-width="1920"
   inkscape:window-height="1056"
   id="namedview132"
   showgrid="false"
   showguides="true"
   inkscape:guide-bbox="true"
   inkscape:zoom="0.5"
   inkscape:cx="-567.96977"
   inkscape:cy="161.13467"
   inkscape:window-x="0"
   inkscape:window-y="0"
   inkscape:window-maximized="1"
   inkscape:current-layer="svg130"><sodipodi:guide
     position="256,256.05859"
     orientation="1,0"
     id="guide189"
     inkscape:locked="false" /></sodipodi:namedview>
<desc
   id="desc92">Created with Fabric.js 1.7.22</desc>
<defs
   id="defs94">

	

	
	
	
	
	
	
	
	
	
	
	
	
	
	
	
</defs>

<g
   id="g1071"
   transform="translate(0,-0.04033171)"
   style="stroke:none"><g
     id="g1063"
     style="stroke:none"><path
       d="m 188.22,87.382798 c -4.94061,0 -9.58714,-1.924149 -13.07974,-5.419548 -3.49539,-3.495398 -5.42234,-8.139124 -5.42234,-13.079736 0,-4.943412 1.92695,-9.587138 5.42234,-13.082536 3.4926,-3.495399 8.13913,-5.419548 13.07974,-5.419548 4.94341,0 9.58994,1.924149 13.08254,5.419548 3.4954,3.495398 5.41955,8.139124 5.41955,13.082536 0,4.940612 -1.92415,9.587139 -5.41955,13.079736 v 0 c -3.4926,3.495399 -8.14193,5.419548 -13.08254,5.419548 z m 0,-31.399768 c -3.44218,0 -6.68271,1.341583 -9.1194,3.778279 -2.4367,2.436696 -3.78108,5.674421 -3.78108,9.122205 0,3.444984 1.34158,6.682709 3.78108,9.119405 2.43669,2.436696 5.67442,3.778279 9.1194,3.778279 3.44498,0 6.68551,-1.341583 9.12221,-3.778279 v 0 c 2.43669,-2.436696 3.77828,-5.674421 3.77828,-9.119405 0,-3.444984 -1.34159,-6.685509 -3.77828,-9.122205 -2.4395,-2.436696 -5.67723,-3.778279 -9.12221,-3.778279 z"
       style="opacity:1;fill:#000000;fill-rule:nonzero;stroke:none;stroke-width:2.80080009;stroke-linecap:butt;stroke-linejoin:miter;stroke-miterlimit:10;stroke-dasharray:none"
       id="path102"
       inkscape:connector-curvature="0" /><path
       d="M 253.99959,13.578918 C 254.23486,11.049795 253.3414,8.5682864 251.54329,6.7701728 249.74517,4.9720592 247.24686,4.078604 244.73454,4.3138712 212.16404,7.3639424 173.29174,28.18509 128.75902,66.343189 L 84.335528,65.217267 C 77.678026,65.01841 71.205378,67.645561 66.516838,72.3341 L 46.222242,92.628697 c -2.251844,2.251843 -3.108888,5.436353 -2.288254,8.514433 0.820634,3.07808 3.145298,5.41395 6.220577,6.24858 l 31.565016,8.55925 19.762449,19.75964 c 1.09511,1.09512 2.86521,1.09512 3.96033,0 1.09511,-1.09511 1.09511,-2.86522 0,-3.96033 L 87.105519,113.41343 C 150.15433,48.639332 203.35272,13.816986 245.25829,9.8930648 c 0.86545,-0.067219 1.71129,0.2268652 2.32467,0.8402402 0.61337,0.613375 0.91866,1.462017 0.83744,2.324664 -3.92112,41.902769 -38.74907,95.103961 -103.52037,158.152771 L 126.56039,152.8711 c -1.09511,-1.09511 -2.86522,-1.09511 -3.96033,0 -1.09512,1.09512 -1.09512,2.86522 0,3.96034 l 19.76524,19.76244 8.55925,31.56222 c 0.83184,3.07807 3.1705,5.40274 6.24858,6.22337 0.76742,0.20446 1.54324,0.30529 2.31066,0.30529 2.29666,-0.003 4.51209,-0.90466 6.20097,-2.59634 l 20.2918,-20.2918 c 4.69414,-4.69414 7.29048,-11.18639 7.11963,-17.81869 l -1.12592,-44.42349 C 230.12557,85.021724 250.94672,46.149421 253.99959,13.578918 Z M 82.318952,110.31015 51.622184,101.98617 c -1.621663,-0.43973 -2.128608,-1.7449 -2.27425,-2.282652 -0.14284,-0.540555 -0.3501,-1.926951 0.83744,-3.111689 L 70.47997,76.297232 c 3.613032,-3.610231 8.626464,-5.6016 13.715518,-5.478365 l 38.298142,0.969077 c -12.9313,11.41326 -26.330324,24.26333 -40.174678,38.522206 z m 105.175638,63.81062 c 0.13164,5.10306 -1.86533,10.10249 -5.47836,13.71552 l -20.2918,20.2918 c -1.18754,1.18754 -2.56833,0.98028 -3.10889,0.83744 -0.54055,-0.14565 -1.84572,-0.65259 -2.28545,-2.27705 l -8.32398,-30.69397 c 14.25608,-13.84436 27.10895,-27.24058 38.52221,-40.17188 z"
       style="opacity:1;fill:#000000;fill-rule:nonzero;stroke:none;stroke-width:2.80080009;stroke-linecap:butt;stroke-linejoin:miter;stroke-miterlimit:10;stroke-dasharray:none"
       id="path104"
       inkscape:connector-curvature="0" /></g><rect
     id="rect1065"
     width="256"
     height="256"
     x="0"
     y="0.04033171"
     style="fill:none;stroke:none;stroke-width:1;stroke-miterlimit:4;stroke-dasharray:none;stroke-opacity:1" /></g></svg>