<?xml version="1.0" encoding="UTF-8" standalone="no"?>
<svg
   xmlns:dc="http://purl.org/dc/elements/1.1/"
   xmlns:cc="http://creativecommons.org/ns#"
   xmlns:rdf="http://www.w3.org/1999/02/22-rdf-syntax-ns#"
   xmlns:svg="http://www.w3.org/2000/svg"
   xmlns="http://www.w3.org/2000/svg"
   xmlns:sodipodi="http://sodipodi.sourceforge.net/DTD/sodipodi-0.dtd"
   xmlns:inkscape="http://www.inkscape.org/namespaces/inkscape"
   version="1.1"
   width="256"
   height="256"
   viewBox="0 0 256 256"
   xml:space="preserve"
   id="svg130"
   sodipodi:docname="rocket-left-cross-flame.svg"
   inkscape:version="0.92.5 (2060ec1f9f, 2020-04-08)"><metadata
   id="metadata134"><rdf:RDF><cc:Work
       rdf:about=""><dc:format>image/svg+xml</dc:format><dc:type
         rdf:resource="http://purl.org/dc/dcmitype/StillImage" /><dc:title /></cc:Work></rdf:RDF></metadata><sodipodi:namedview
   pagecolor="#ffffff"
   bordercolor="#666666"
   borderopacity="1"
   objecttolerance="10"
   gridtolerance="10"
   guidetolerance="10"
   inkscape:pageopacity="0"
   inkscape:pageshadow="2"
   inkscape:window-width="1920"
   inkscape:window-height="1056"
   id="namedview132"
   showgrid="false"
   showguides="true"
   inkscape:guide-bbox="true"
   inkscape:zoom="0.5"
   inkscape:cx="-567.96977"
   inkscape:cy="161.13467"
   inkscape:window-x="0"
   inkscape:window-y="0"
   inkscape:window-maximized="1"
   inkscape:current-layer="svg130"><sodipodi:guide
     position="256,256.05859"
     orientation="1,0"
     id="guide189"
     inkscape:locked="false" /></sodipodi:namedview>
<desc
   id="desc92">Created with Fabric.js 1.7.22</desc>
<defs
   id="defs94">

	

	
	
	
	
	
	
	
	
	
	
	
	
	
	
	
</defs>

<g
   id="g1021"
   transform="translate(0,-0.04033171)"
   style="stroke:none"><g
     id="g170"
     style="stroke:none"><path
       d="m 39.343477,152.13729 c -0.717005,0 -1.43401,-0.27447 -1.980166,-0.82063 -1.095113,-1.09511 -1.095113,-2.86522 0,-3.96033 L 57.59629,127.12615 c 1.095113,-1.09511 2.865219,-1.09511 3.960332,0 1.095112,1.09511 1.095112,2.86522 0,3.96313 l -20.23298,20.23018 c -0.546156,0.54336 -1.26316,0.81783 -1.980165,0.81783 z"
       style="opacity:1;fill:#f8cc1d;fill-rule:nonzero;stroke:none;stroke-width:2.80080009;stroke-linecap:butt;stroke-linejoin:miter;stroke-miterlimit:10;stroke-dasharray:none"
       id="path112"
       inkscape:connector-curvature="0" /><path
       d="m 24.75411,172.68676 c -1.546042,0 -2.8008,-1.25195 -2.8008,-2.8008 v -11.9202 c 0,-1.54884 1.254758,-2.8008 2.8008,-2.8008 1.546041,0 2.8008,1.25196 2.8008,2.8008 v 11.9202 c 0,1.54885 -1.251958,2.8008 -2.8008,2.8008 z"
       style="opacity:1;fill:#f8cc1d;fill-rule:nonzero;stroke:none;stroke-width:2.80080009;stroke-linecap:butt;stroke-linejoin:miter;stroke-miterlimit:10;stroke-dasharray:none"
       id="path118"
       inkscape:connector-curvature="0" /><path
       d="M 30.714212,166.72666 H 18.796808 c -1.546042,0 -2.8008,-1.25196 -2.8008,-2.8008 0,-1.54884 1.254758,-2.8008 2.8008,-2.8008 h 11.917404 c 1.546042,0 2.8008,1.25196 2.8008,2.8008 0,1.54884 -1.254758,2.8008 -2.8008,2.8008 z"
       style="opacity:1;fill:#f8cc1d;fill-rule:nonzero;stroke:none;stroke-width:2.80080009;stroke-linecap:butt;stroke-linejoin:miter;stroke-miterlimit:10;stroke-dasharray:none"
       id="path120"
       inkscape:connector-curvature="0" /></g><rect
     style="fill:none;stroke:none;stroke-width:1;stroke-miterlimit:4;stroke-dasharray:none;stroke-opacity:1"
     y="0.04033171"
     x="0"
     height="256"
     width="256"
     id="rect1002" /></g></svg>